<?xml version="1.0" encoding="UTF-8"?>
<svg width="42px" height="42px" viewBox="0 0 42 42" version="1.1" xmlns="http://www.w3.org/2000/svg" xmlns:xlink="http://www.w3.org/1999/xlink">
    <!-- Generator: Sketch 46.2 (44496) - http://www.bohemiancoding.com/sketch -->
    <title>linkedin</title>
    <desc>Created with Sketch.</desc>
    <defs></defs>
    <g id="Page-1" stroke="none" stroke-width="1" fill="none" fill-rule="evenodd">
        <g id="HOVER" transform="translate(-239.000000, -88.000000)">
            <g id="linkedin" transform="translate(240.000000, 89.000000)">
                <g id="Group-19" transform="translate(9.000000, 10.000000)" stroke="#5E676F" stroke-linecap="round" stroke-linejoin="round">
                    <path d="M2.65438095,0.0686666667 C1.08993651,0.0686666667 0.0670793651,1.07342857 0.0670793651,2.39946032 C0.0670793651,3.70009524 1.06073016,4.72644444 2.59501587,4.72644444 L2.6251746,4.72644444 C4.21755556,4.72644444 5.20898413,3.69660317 5.20898413,2.39565079 C5.17850794,1.07088889 4.21755556,0.0686666667 2.65438095,0.0686666667 L2.65438095,0.0686666667 Z" id="Stroke-171"></path>
                    <path d="M16.4266984,6.27634921 C13.9993968,6.27634921 12.4787619,7.59126984 12.1974921,8.51222222 L12.1974921,6.40555556 L7.4387619,6.40555556 C7.49939683,7.52396825 7.4387619,19.8290476 7.4387619,19.8290476 L12.1974921,19.8290476 L12.1974921,12.5652381 C12.1974921,12.1614286 12.178127,11.7579365 12.3003492,11.4680952 C12.6282857,10.6607937 13.3314603,9.82301587 14.5949524,9.82301587 C16.2476508,9.82301587 16.9990794,11.0646032 16.9990794,12.8826984 L16.9990794,19.8290476 L21.8032063,19.8290476 L21.8032063,12.3652381 C21.8032063,8.20746032 19.4374921,6.27634921 16.4266984,6.27634921 L16.4266984,6.27634921 Z" id="Stroke-172"></path>
                    <polygon id="Stroke-173" points="0.614603175 19.8292063 4.85206349 19.8292063 4.85206349 6.40539683 0.614603175 6.40539683"></polygon>
                </g>
                <circle id="Oval-3-Copy-4" stroke="#1B1B1B" cx="20" cy="20" r="20"></circle>
            </g>
        </g>
    </g>
</svg>