<?xml version="1.0" encoding="UTF-8"?>
<svg width="30px" height="30px" viewBox="0 0 30 30" version="1.1" xmlns="http://www.w3.org/2000/svg" xmlns:xlink="http://www.w3.org/1999/xlink">
    <!-- Generator: Sketch 46.2 (44496) - http://www.bohemiancoding.com/sketch -->
    <title>linkedin full copy</title>
    <desc>Created with Sketch.</desc>
    <defs></defs>
    <g id="Page-1" stroke="none" stroke-width="1" fill="none" fill-rule="evenodd">
        <g id="Homepage" transform="translate(-707.000000, -7808.000000)">
            <g id="linkedin-full-copy" transform="translate(707.000000, 7808.000000)">
                <circle id="Oval-3-Copy-4" fill="#00A1F8" cx="15" cy="15" r="15"></circle>
                <path d="M8.74078571,7.5515 C7.56745238,7.5515 6.80030952,8.30507143 6.80030952,9.29959524 C6.80030952,10.2750714 7.54554762,11.0448333 8.6962619,11.0448333 L8.71888095,11.0448333 C9.91316667,11.0448333 10.6567381,10.2724524 10.6567381,9.2967381 C10.633881,8.30316667 9.91316667,7.5515 8.74078571,7.5515 L8.74078571,7.5515 Z" id="Stroke-171" fill="#FFFFFF"></path>
                <path d="M19.0700238,12.2072619 C17.2495476,12.2072619 16.1090714,13.1934524 15.898119,13.8841667 L15.898119,12.3041667 L12.3290714,12.3041667 C12.3745476,13.1429762 12.3290714,22.3717857 12.3290714,22.3717857 L15.898119,22.3717857 L15.898119,16.9239286 C15.898119,16.6210714 15.8835952,16.3184524 15.9752619,16.1010714 C16.2212143,15.4955952 16.7485952,14.8672619 17.6962143,14.8672619 C18.9357381,14.8672619 19.4993095,15.7984524 19.4993095,17.1620238 L19.4993095,22.3717857 L23.1024048,22.3717857 L23.1024048,16.7739286 C23.1024048,13.6555952 21.328119,12.2072619 19.0700238,12.2072619 L19.0700238,12.2072619 Z" id="Stroke-172" fill="#FFFFFF"></path>
                <polygon id="Stroke-173" fill="#FFFFFF" points="7.21095238 22.3719048 10.3890476 22.3719048 10.3890476 12.3040476 7.21095238 12.3040476"></polygon>
            </g>
        </g>
    </g>
</svg>