<?xml version="1.0" encoding="UTF-8"?>
<svg width="145px" height="47px" viewBox="0 0 145 47" version="1.1" xmlns="http://www.w3.org/2000/svg" xmlns:xlink="http://www.w3.org/1999/xlink">
    <!-- Generator: Sketch 46.2 (44496) - http://www.bohemiancoding.com/sketch -->
    <title>SportyFi logo nov</title>
    <desc>Created with Sketch.</desc>
    <defs>
        <polygon id="path-1" points="14.9447833 0.0395 0.3652025 0.0395 0.3652025 5.87285 14.9447833 5.87285 14.9447833 0.0395"></polygon>
    </defs>
    <g id="Page-1" stroke="none" stroke-width="1" fill="none" fill-rule="evenodd">
        <g id="MAIN-NAVIGATION" transform="translate(0.000000, -1.000000)">
            <g id="SportyFi-logo-nov" transform="translate(0.000000, 1.000000)">
                <path d="M53.9199983,32.1500821 C54.4147725,31.5369586 54.8856302,31.7574133 55.2862329,32.0027665 C55.8990953,32.419815 56.982317,33.0816979 58.4661415,33.0816979 C59.9973009,33.0816979 61.4108704,32.2968791 61.4108704,30.7770381 C61.4108704,27.6621423 55.1213082,28.4962393 55.1213082,23.3707962 C55.1213082,19.9374081 57.9952838,18 61.2459456,18 C63.3187159,18 64.9679634,18.8097173 65.5564109,19.2506268 C66.09852,19.6676753 66.1219383,20.1827613 65.7452522,20.6973286 L65.2270596,21.4333881 C64.8503735,21.9728538 64.3790176,21.9728538 63.860825,21.7031209 C63.2484609,21.38411 62.4004189,20.9183021 61.1517741,20.9183021 C59.1731754,20.9183021 58.1602086,21.9972335 58.1602086,23.1742025 C58.1602086,26.1417827 64.4731891,25.3325841 64.4731891,30.4575084 C64.4731891,33.6953402 61.9763978,36 58.3953883,36 C55.9693502,36 54.1083414,34.9210686 53.4018057,34.307945 C52.9543664,33.9152762 52.81286,33.4743667 53.3310525,32.8612432 L53.9199983,32.1500821 Z" id="Fill-1" fill="#00A1F8"></path>
                <path d="M72.0617374,33.6452804 C73.8792937,33.6452804 75.9324683,31.7758833 75.9324683,28.5844612 C75.9324683,26.8147302 75.0354212,25.7178766 73.5488289,25.7178766 C71.1886515,25.7178766 69.7015601,28.4099139 69.7015601,30.7781684 C69.7015601,32.3490947 70.4333748,33.6452804 72.0617374,33.6452804 L72.0617374,33.6452804 Z M67.8850022,24.3462823 C68.0028114,23.6734048 68.4041614,23.2989981 69.0645917,23.2989981 L69.8198684,23.2989981 C70.4568368,23.2989981 70.7169156,23.6734048 70.6220692,24.1717349 L70.5282212,24.7454737 C70.480798,25.0196871 70.3864508,25.2438038 70.3864508,25.2438038 L70.4333748,25.2438038 C70.7169156,24.7454737 72.0617374,23 74.4928,23 C77.2772902,23 79,25.2685885 79,28.2854632 C79,33.2218316 75.7437739,36.3130603 72.274393,36.3130603 C70.2207192,36.3130603 69.1594381,35.0416593 68.9937065,34.3682545 L68.9467825,34.3682545 C68.9467825,34.3682545 68.9467825,34.8175426 68.8284741,35.4651081 L68.0028114,39.9527158 C67.8850022,40.6509053 67.4596911,41 66.8227227,41 L65.8078664,41 C65.1469369,41 64.9113185,40.6509053 65.0291277,39.9527158 L67.8850022,24.3462823 Z" id="Fill-3" fill="#00A1F8"></path>
                <path d="M87.246885,33.3711626 C89.4936954,33.3711626 91.8146684,31.4236086 91.8146684,28.6727273 C91.8146684,26.8467023 90.5554727,25.6293523 88.7776617,25.6293523 C86.5308513,25.6293523 84.1853316,27.6258269 84.1853316,30.3525054 C84.1853316,32.2022183 85.4690741,33.3711626 87.246885,33.3711626 M88.8027307,23 C92.4319928,23 95,25.2153298 95,28.4775599 C95,32.835611 91.0986346,36 87.1972693,36 C83.5680072,36 81,33.809388 81,30.4982373 C81,26.1891068 84.8768186,23 88.8027307,23" id="Fill-5" fill="#00A1F8"></path>
                <path d="M98.1368246,24.1635802 C98.263648,23.4809465 98.6957077,23.1011111 99.4066715,23.1011111 L100.397614,23.1011111 C101.083858,23.1011111 101.3633,23.4809465 101.236476,24.1635802 L101.007549,25.3779835 C100.905983,25.8578601 100.753365,26.2628395 100.753365,26.2628395 L100.804417,26.2628395 C101.617484,24.7199588 103.370443,23 105.19971,23 C105.911211,23 106.089087,23.4049794 105.962263,24.1127572 L105.758593,25.0992593 C105.631232,25.781893 105.174453,26.1109053 104.462414,26.1109053 C102.125316,26.1109053 100.524438,28.4375309 100.067658,30.7903704 L99.2545908,34.9380658 C99.1277673,35.6463786 98.6699131,36 97.9842065,36 L96.8922348,36 C96.2059908,36 95.901292,35.6463786 96.0281155,34.9380658 L98.1368246,24.1635802 Z" id="Fill-7" fill="#00A1F8"></path>
                <path d="M107.543724,26.042823 L106.861776,26.042823 C106.204946,26.042823 105.901917,25.651077 106.028046,24.9664273 L106.129055,24.5260366 C106.255718,23.8651918 106.684875,23.5717705 107.367358,23.5717705 L108.125197,23.5717705 L108.630245,21.0272333 C108.782027,20.366906 109.211719,20 109.893667,20 L110.904298,20 C111.611899,20 111.889809,20.366906 111.763681,21.0272333 L111.232445,23.5717705 L113.127578,23.5717705 C113.810595,23.5717705 114.113089,23.9878388 113.961842,24.6486836 L113.885951,25.0885568 C113.759823,25.7494016 113.330131,26.042823 112.648183,26.042823 L110.75305,26.042823 L109.767539,30.8871208 C109.413738,32.7464907 110.525378,33.1133967 111.384761,33.2117213 C112.142066,33.2846885 112.395392,33.5786273 112.24361,34.2632771 L112.092363,35.021929 C111.940581,35.755741 111.434999,36 110.57615,36 C108.276444,36 105.800373,34.8014749 106.457737,31.4253186 L107.543724,26.042823 Z" id="Fill-9" fill="#00A1F8"></path>
                <path d="M114.945574,24.2269357 C114.775788,23.4257472 115.237298,23 115.942683,23 L117.159486,23 C117.767116,23 118.083536,23.2758884 118.156595,23.8514945 L119.250946,30.3605554 C119.372369,31.1617439 119.421247,32.3134855 119.421247,32.3134855 L119.470125,32.3134855 C119.470125,32.3134855 119.810727,31.2115204 120.199692,30.4103318 L123.605196,23.8763827 C123.872738,23.2758884 124.285885,23 124.894544,23 L126.232255,23 C126.961822,23 127.205182,23.4760532 126.815703,24.2020475 L119.250946,37.6702754 C117.937417,40.0489527 116.016258,41 114.264885,41 C113.510622,41 112.902478,40.8247235 112.465149,40.5996705 C111.92955,40.3237821 111.85649,39.8985644 112.24597,39.2472346 L112.537694,38.7468228 C112.902478,38.1463285 113.389199,38.0711344 113.705619,38.1712168 C113.924283,38.2712991 114.191825,38.3967992 114.556609,38.3967992 C115.456477,38.3967992 116.2838,37.6204989 116.843066,36.6943398 L117.52427,35.5674865 L114.945574,24.2269357 Z" id="Fill-11" fill="#00A1F8"></path>
                <path d="M129.987331,19.0058392 C130.133691,18.3590836 130.5495,18 131.209414,18 L139.156317,18 C139.816232,18 140.10947,18.4310016 139.963109,19.0777573 L139.840539,19.7478103 C139.717969,20.3945659 139.302678,20.6579277 138.642246,20.6579277 L132.822999,20.6579277 L131.870363,25.4708634 L136.61337,25.4708634 C137.273285,25.4708634 137.542216,25.8775547 137.420163,26.5243103 L137.298109,27.1943633 C137.151232,27.8406125 136.735424,28.1282846 136.074992,28.1282846 L131.331985,28.1282846 L130.158516,33.9946672 C130.035945,34.6652267 129.620137,35 128.935915,35 L127.835368,35 C127.175453,35 126.906523,34.6652267 127.028576,33.9946672 L129.987331,19.0058392 Z" id="Fill-13" fill="#00A1F8"></path>
                <path d="M141.791872,19.6763488 L141.91176,18.958203 C142.056031,18.3119731 142.463954,18 143.136543,18 L144.169302,18 C144.841891,18 145.10605,18.4076921 144.961779,19.053922 L144.841891,19.7720678 C144.722004,20.4188042 144.28919,20.7059612 143.640984,20.7059612 L142.584349,20.7059612 C141.935636,20.7059612 141.671985,20.3230852 141.791872,19.6763488 L141.791872,19.6763488 Z M140.998888,23.7947985 C141.119283,23.1480621 141.551081,22.7889892 142.200303,22.7889892 L143.232554,22.7889892 C143.881267,22.7889892 144.169302,23.1480621 144.025031,23.7947985 L142.056031,33.9941907 C141.935636,34.6652367 141.503838,35 140.855124,35 L139.798489,35 C139.150284,35 138.909493,34.6652367 139.029888,33.9941907 L140.998888,23.7947985 Z" id="Fill-15" fill="#00A1F8"></path>
                <polygon id="Fill-17" fill="#E6F9D7" points="4 19.9013854 15 14 14.2978507 29"></polygon>
                <path d="M5.42035175,19.517692 L14.3345167,27.3702366 L14.9417583,14.4241495 L5.42035175,19.517692 Z M14.7909634,29 C14.6736784,29 14.5574089,28.9574474 14.4639871,28.8750018 L4.18098986,19.81556 C4.05050399,19.7012 3.98399174,19.5256706 4.00328537,19.3485455 C4.02207127,19.1714205 4.12513988,19.0161036 4.27644256,18.9347218 L15.2611187,13.058744 C15.4225759,12.9715112 15.6150045,12.9821494 15.7678303,13.0858713 C15.9201485,13.1890612 16.008493,13.3688458 15.9993539,13.5587367 L15.2981828,28.4936244 C15.2890437,28.6957491 15.1707433,28.8744699 14.9935465,28.9558517 C14.9290652,28.9851066 14.8600143,29 14.7909634,29 L14.7909634,29 Z" id="Fill-19" fill="#7BE300"></path>
                <path d="M15.7284789,14.3526108 L15.0929229,27.496217 L27.3723265,19.9549605 L15.7284789,14.3526108 Z M14.5226994,29 C14.4301884,29 14.3376773,28.974999 14.2550969,28.9244651 C14.0888906,28.8239292 13.9916756,28.6382835 14.0005608,28.4419992 L14.722356,13.5052367 C14.7312413,13.3281021 14.8258429,13.1669255 14.9763694,13.0754325 C15.1258505,12.9850034 15.3103499,12.9748966 15.4681936,13.0504315 L28.7004088,19.4171733 C28.874455,19.5006872 28.9894405,19.6751622 28.999371,19.8709147 C29.0087789,20.0666671 28.9120866,20.2523128 28.7469256,20.3533806 L14.7929153,28.9234012 C14.7098121,28.9744671 14.6162558,29 14.5226994,29 L14.5226994,29 Z" id="Fill-21" fill="#7BE300"></path>
                <polygon id="Fill-23" fill="#E6F9D7" points="28.5170425 35 29 20 15 28.6063034"></polygon>
                <path d="M15.6337503,29.0403416 L27.4995263,34.6467922 L27.9239574,21.4934421 L15.6337503,29.0403416 Z M27.9960898,36 C27.9213439,36 27.8460754,35.9835104 27.7760338,35.9505313 L14.3024375,29.5839652 C14.1268108,29.5009855 14.0112945,29.3265153 14.0008405,29.1302363 C13.9898638,28.9339573 14.0870857,28.7477849 14.2522584,28.6461879 L28.2077827,20.0764037 C28.3724327,19.9753387 28.5773304,19.9748067 28.7419804,20.0732122 C28.9076758,20.1716176 29.0064658,20.3545986 28.9996707,20.5492818 L28.5182655,35.4856321 C28.5130385,35.6638257 28.4194755,35.8276575 28.2705065,35.9212756 C28.1868747,35.9734039 28.0917436,36 27.9960898,36 L27.9960898,36 Z" id="Fill-25" fill="#7BE300"></path>
                <polygon id="Fill-27" fill="#BEF198" points="41 28.6063034 28.4902242 20 28 35"></polygon>
                <path d="M28.5166507,21.5198801 L28.0886387,34.6004998 L39.4211447,29.0253717 L28.5166507,21.5198801 Z M27.5301546,36 C27.4293835,36 27.3296732,35.9712759 27.2421614,35.9148917 C27.085701,35.8138255 26.9939463,35.6377576 27.0003108,35.4505193 L27.4887854,20.5145378 C27.4946195,20.3203844 27.6059981,20.1448485 27.7789001,20.0570805 C27.9523325,19.9698444 28.1591785,19.9831426 28.3182907,20.0932515 L40.7698864,28.6631293 C40.925286,28.7700466 41.0127978,28.9514338 40.9984777,29.1402679 C40.9852183,29.3285701 40.872779,29.4961272 40.7035896,29.5791078 L27.7635193,35.9457434 C27.6892669,35.9819145 27.6097108,36 27.5301546,36 L27.5301546,36 Z" id="Fill-29" fill="#7BE300"></path>
                <polygon id="Fill-31" fill="#E6F9D7" points="34.622551 42 28 34.3858526 41 28"></polygon>
                <path d="M28.3834191,35.0612869 L33.9812983,41.498311 L39.3718094,29.6627496 L28.3834191,35.0612869 Z M34.1218419,43 C33.9696305,43 33.8237834,42.934663 33.7219555,42.8183312 L27.1307246,35.2381749 C27.0225325,35.1138753 26.9779828,34.9454864 27.0103344,34.784003 C27.0432163,34.6225196 27.1487566,34.4849401 27.2967251,34.4121663 L40.2362853,28.0548215 C40.4383499,27.9549568 40.6791303,27.9942653 40.839297,28.1504367 C40.999994,28.3066081 41.0450741,28.5472395 40.9522622,28.7517497 L34.6044634,42.6892508 C34.5296836,42.8539213 34.3769419,42.9686595 34.1982128,42.994688 C34.1727558,42.9984064 34.1472989,43 34.1218419,43 L34.1218419,43 Z" id="Fill-33" fill="#7BE300"></path>
                <path d="M19.0338156,41.0165599 L32.389915,41.0165599 L27.1637903,35.1567322 L19.0338156,41.0165599 Z M33.4966711,42 L17.5035918,42 C17.2860673,42 17.0932158,41.8637935 17.0252395,41.6616966 C16.9572631,41.4600914 17.0297712,41.2388174 17.2044957,41.1124453 L26.9392165,34.0960921 C27.1506986,33.9436589 27.4467735,33.9761124 27.6179732,34.168375 L33.8763318,41.1852199 C34.0057386,41.330769 34.0364539,41.5367997 33.9548822,41.7118521 C33.8733106,41.8873961 33.6935508,42 33.4966711,42 L33.4966711,42 Z" id="Fill-35" fill="#7BE300"></path>
                <polygon id="Fill-37" fill="#BEF198" points="14.769385 28 6 33.7933928 18 42"></polygon>
                <path d="M6.42848657,34.3048034 L16.7149534,41.3180366 L13.9457321,29.3535172 L6.42848657,34.3048034 Z M17.498856,43 C17.4031237,43 17.3078925,42.9717756 17.2246906,42.9148042 L5.22757177,34.734441 C5.08422384,34.6372237 4.99851581,34.4704909 5.00001946,34.2933046 C5.00152311,34.1150729 5.08973722,33.9499081 5.23358636,33.8553042 L14.0008659,28.0808072 C14.137698,27.9903846 14.3076104,27.9752271 14.4574741,28.0384706 C14.6068367,28.1017141 14.7181067,28.2365639 14.755698,28.4001607 L17.9860385,42.3544982 C18.0341553,42.5630449 17.9554643,42.7809998 17.7875567,42.9043507 C17.7013475,42.9675942 17.6001018,43 17.498856,43 L17.498856,43 Z" id="Fill-39" fill="#7BE300"></path>
                <path d="M15.2434579,29.4790347 L18.0608919,41.5684371 L26.5126902,34.9938717 L15.2434579,29.4790347 Z M17.7519318,43 C17.6939703,43 17.6360088,42.9899073 17.5805673,42.9686597 C17.4218031,42.9075726 17.302352,42.7684002 17.2625349,42.5952316 L14.0146735,28.6578116 C13.9683043,28.4596769 14.033826,28.2503872 14.183014,28.1207763 C14.3332099,27.9916966 14.5403594,27.9630122 14.715756,28.0495966 L27.7077056,34.4069044 C27.8694939,34.4865832 27.9798728,34.6485968 27.9975132,34.8355765 C28.0151537,35.0225561 27.9380397,35.204755 27.7948999,35.3163054 L18.0508117,42.8964175 C17.9631134,42.9649413 17.8577746,43 17.7519318,43 L17.7519318,43 Z" id="Fill-41" fill="#7BE300"></path>
                <polygon id="Fill-43" fill="#E6F9D7" points="26 6 27.8463467 20 38 13.8301852"></polygon>
                <path d="M27.1428122,7.54137502 L28.7417381,19.6485816 L37.5393393,14.3133855 L27.1428122,7.54137502 Z M28.3467683,21 C28.2725862,21 28.1974016,20.9830237 28.128733,20.9485566 C27.9773613,20.8734492 27.8726041,20.7252922 27.8500487,20.5545001 L26.0045173,6.58349873 C25.9784533,6.38492716 26.0666699,6.1894422 26.2305723,6.08141104 C26.3959784,5.97337988 26.6054929,5.97286545 26.7698965,6.07986774 L38.7673545,13.8946362 C38.9147163,13.9903209 39.0029329,14.1580264 38.9999255,14.3370495 C38.9969181,14.5160726 38.9041904,14.6806915 38.7538212,14.7717463 L28.6018947,20.9284937 C28.5237027,20.976336 28.4354861,21 28.3467683,21 L28.3467683,21 Z" id="Fill-45" fill="#7BE300"></path>
                <path d="M28.1141577,6.38066539 L37.7772157,12.4605297 L36.4765447,6.01194784 L28.1141577,6.38066539 Z M38.4989753,14 C38.405748,14 38.3125207,13.97416 38.2303203,13.9224799 L26.2325706,6.37370846 C26.0481209,6.25742826 25.960407,6.03580019 26.0170451,5.82609829 C26.0736832,5.61639639 26.260639,5.46781614 26.4791718,5.45787766 L36.8614832,5.00021072 C37.105077,4.99325378 37.3271184,5.15922638 37.3752357,5.39924063 L38.9901728,13.4051821 C39.0297693,13.6004732 38.9475689,13.8002366 38.7821657,13.9125414 C38.6969579,13.9706815 38.5982172,14 38.4989753,14 L38.4989753,14 Z" id="Fill-47" fill="#7BE300"></path>
                <path d="M29.45875,19.9318143 L39.8550673,27.3685989 L38.4282719,14.407285 L29.45875,19.9318143 Z M40.489879,29 C40.3888399,29 40.288311,28.9686167 40.2015602,28.9063819 L28.2212755,20.337138 C28.0773712,20.2339454 27.9941925,20.0621349 28.0003161,19.880218 C28.0054191,19.698833 28.1003347,19.5328737 28.2503625,19.4403195 L38.5859542,13.0742915 C38.7344512,12.9822692 38.9176485,12.9753542 39.0727793,13.0556743 C39.2273998,13.1359943 39.3330317,13.292379 39.352423,13.4711044 L40.9966057,28.4074402 C41.0195692,28.6143574 40.9246536,28.8159554 40.7531932,28.9234034 C40.6720557,28.9744678 40.5812225,29 40.489879,29 L40.489879,29 Z" id="Fill-49" fill="#7BE300"></path>
                <polygon id="Fill-51" fill="#BEF198" points="45 20 38.5999007 14.5964631 37 6"></polygon>
                <path d="M39.5495404,13.7929865 L43.6263947,17.2170694 L38.5298298,8.34505071 L39.5495404,13.7929865 Z M45.5028211,20 C45.3949862,20 45.2866544,19.9622852 45.1957153,19.8863243 L38.7912176,14.5069126 C38.6977939,14.4288269 38.6341862,14.3178072 38.6108302,14.1935076 L37.0097058,5.63542507 C36.962497,5.38310745 37.0912031,5.13078983 37.3153208,5.03676831 C37.5389415,4.9427468 37.794863,5.03411234 37.9205876,5.25296467 L45.9267066,19.19099 C46.0524312,19.4103736 46.0131733,19.6940317 45.8337798,19.8656077 C45.7398591,19.9548484 45.6215886,20 45.5028211,20 L45.5028211,20 Z" id="Fill-53" fill="#7BE300"></path>
                <polygon id="Fill-55" fill="#E6F9D7" points="40.7504073 29 46 19.4099149 39 14"></polygon>
                <path d="M39.2178514,14.7379143 L40.6073603,26.723875 L44.7753495,19.060371 L39.2178514,14.7379143 Z M40.2688488,29 C40.235535,29 40.2011466,28.9968084 40.1678327,28.9904253 C39.9367852,28.9462752 39.7621563,28.759568 39.7352903,28.5287107 L38.0035088,13.5926708 C37.9787921,13.3793671 38.086256,13.1724467 38.2753926,13.0676566 C38.4639918,12.9628666 38.6982632,12.9809522 38.8696682,13.1139345 L45.7946451,18.5007815 C45.9999012,18.6603602 46.0595437,18.9433466 45.9359602,19.1710123 L40.7422275,28.7202052 C40.6471219,28.894678 40.4638959,29 40.2688488,29 L40.2688488,29 Z" id="Fill-57" fill="#7BE300"></path>
                <path d="M18.8569051,42.1166946 L22.6992778,45.7962032 L30.9076857,42.1166946 L18.8569051,42.1166946 Z M22.6026017,47 C22.4837706,47 22.3669536,46.9530988 22.2738022,46.8643216 L17.1746397,41.9810162 C17.0155269,41.828029 16.9581254,41.5823562 17.0316396,41.3634841 C17.1051537,41.1451703 17.2934708,41 17.5034392,41 L33.4962899,41 C33.7374767,41 33.9449276,41.1892797 33.990748,41.4522613 C34.0365685,41.7141262 33.908674,41.9759911 33.6851105,42.0759352 L22.7914223,46.9592406 C22.7304962,46.987158 22.6660454,47 22.6026017,47 L22.6026017,47 Z" id="Fill-59" fill="#7BE300"></path>
                <path d="M41.0966513,28.933128 L43.0752088,32.7959128 L44.558484,22.3826876 L41.0966513,28.933128 Z M43.3555087,35 C43.1657276,35 42.9893187,34.8936464 42.8993141,34.7186606 L40.0582558,29.1715069 C39.9795661,29.0174775 39.9805947,28.8335852 40.0613416,28.6811276 L45.0326795,19.2753804 C45.1514855,19.051671 45.4112129,18.947413 45.647282,19.0259995 C45.8843798,19.1061576 46.0309586,19.3476799 45.9944425,19.5991565 L43.8641631,34.5515335 C43.8322757,34.7762906 43.6615242,34.9544199 43.4419131,34.9926653 C43.4125973,34.9973805 43.3837958,35 43.3555087,35 L43.3555087,35 Z" id="Fill-61" fill="#7BE300"></path>
                <path d="M40.6841529,29.7407394 L35.9963504,40.3817197 L42.8474779,34.0349529 L40.6841529,29.7407394 Z M34.5132646,43 C34.4065605,43 34.2998563,42.9654721 34.2090551,42.8969474 C34.0136017,42.7471492 33.9453726,42.4773001 34.0464338,42.2483533 L40.186029,28.3107515 C40.2675962,28.1258942 40.4435555,28.005312 40.6395218,28 C40.8339492,28.0095616 41.0170905,28.1057086 41.1078917,28.2852539 L43.9417089,33.9095899 C44.0504651,34.1252567 44.003782,34.3892627 43.8288487,34.5512784 L34.8554363,42.8645442 C34.7579661,42.9543169 34.6358719,43 34.5132646,43 L34.5132646,43 Z" id="Fill-63" fill="#7BE300"></path>
                <path d="M12.5580967,42.1166946 L20.2110134,44.9927415 L17.2045824,42.1166946 L12.5580967,42.1166946 Z M22.4962034,47 C22.4417701,47 22.3873368,46.9905081 22.3339115,46.9704076 L9.34199679,42.0871022 C9.10813527,41.9994417 8.96650793,41.7370184 9.00682888,41.4673367 C9.04664582,41.1976549 9.25732279,41 9.50378461,41 L17.3920749,41 C17.5130377,41 17.6299685,41.0480179 17.7211946,41.1356784 L22.8253231,46.0189838 C23.0077754,46.1937465 23.0531365,46.4868788 22.9336857,46.7191513 C22.8414515,46.8967058 22.6726075,47 22.4962034,47 L22.4962034,47 Z" id="Fill-65" fill="#7BE300"></path>
                <path d="M5.10716939,20.6961727 L6.27322386,32.6448539 L13.6595537,28.0643995 L5.10716939,20.6961727 Z M5.85900019,34 C5.78337224,34 5.70823859,33.9817693 5.63804794,33.9463208 C5.48679204,33.8688405 5.38447187,33.7169183 5.36717136,33.543727 L4.00240816,19.5567562 C3.98263614,19.3521676 4.08594491,19.1551751 4.26339873,19.0589577 C4.44184115,18.9622339 4.65834469,18.9860351 4.81207209,19.1192202 L14.8236309,27.7438437 C14.9457231,27.8491764 15.0104765,28.0076819 14.9986133,28.1707451 C14.9857614,28.3333018 14.8982703,28.48016 14.7613491,28.56473 L6.11504776,33.9265709 C6.03694831,33.975186 5.94797425,34 5.85900019,34 L5.85900019,34 Z" id="Fill-67" fill="#7BE300"></path>
                <polygon id="Fill-69" fill="#E6F9D7" points="26.1088949 6 15 13.8301852 28 20"></polygon>
                <path d="M16.5280309,14.2414581 L27.8530356,19.6151625 L26.2053802,7.42118496 L16.5280309,14.2414581 Z M28.4874983,21 C28.4126748,21 28.3383637,20.9835383 28.2681526,20.950615 L15.2934424,14.7939527 C15.1289331,14.7152454 15.0177228,14.5547441 15.0018356,14.3721226 C14.9864609,14.1900154 15.0684593,14.0130525 15.2181064,13.907595 L26.3058282,6.09344888 C26.4518879,5.99004905 26.6420217,5.97152968 26.805506,6.04252061 C26.9689903,6.11505482 27.0843006,6.26732521 27.1083876,6.44531695 L28.9953759,20.4161254 C29.0204879,20.6033768 28.942077,20.7890849 28.7903799,20.9002012 C28.7006942,20.9660478 28.5946087,21 28.4874983,21 L28.4874983,21 Z" id="Fill-71" fill="#7BE300"></path>
                <polygon id="Fill-73" fill="#BEF198" points="12 6 27 6.45732729 15.629117 14"></polygon>
                <path d="M12.3297547,6.01907555 L15.3689133,12.744797 L24.890842,6.40318953 L12.3297547,6.01907555 Z M15.1415396,14 C15.0933406,14 15.0456655,13.9935401 14.9985142,13.9811173 C14.8465825,13.9398735 14.7218937,13.8365155 14.6600732,13.6988705 L11.0425261,5.69310043 C10.9717993,5.53657274 10.9901359,5.35718704 11.0912491,5.21705749 C11.1918384,5.07692794 11.3683935,4.99344651 11.5407575,5.0004033 L26.492936,5.45806044 C26.7182141,5.46501723 26.9136298,5.60763134 26.9780698,5.81235962 C27.0425098,6.01758481 26.9618288,6.23871123 26.7768912,6.36144881 L15.4422597,13.9095618 C15.3531963,13.9691914 15.2478918,14 15.1415396,14 L15.1415396,14 Z" id="Fill-75" fill="#7BE300"></path>
                <polygon id="Fill-77" fill="#E6F9D7" points="23 1 26.3218941 6 37 5.52363712"></polygon>
                <g id="Group-81" transform="translate(22.000000, 0.000000)">
                    <mask id="mask-2" fill="white">
                        <use xlink:href="#path-1"></use>
                    </mask>
                    <g id="Clip-80"></g>
                    <path d="M2.07635,1.45485 L4.34735,4.86085 L11.64585,4.53685 L2.07635,1.45485 Z M4.08735,5.87285 C3.92085,5.87285 3.76435,5.78985 3.67135,5.65035 L0.44935,0.81685 C0.33135,0.63985 0.33785,0.40785 0.46635,0.23785 C0.59485,0.06835 0.81785,-0.00215 1.01885,0.06385 L14.59785,4.43685 C14.82835,4.51085 14.97235,4.73935 14.94035,4.97935 C14.90785,5.21885 14.70885,5.40135 14.46635,5.41235 L4.10935,5.87235 C4.10235,5.87285 4.09485,5.87285 4.08735,5.87285 L4.08735,5.87285 Z" id="Fill-79" fill="#7BE300" mask="url(#mask-2)"></path>
                </g>
                <g id="Group-84" transform="translate(11.000000, 0.000000)" fill="#7BE300">
                    <path d="M3.44505,4.4905 L15.015675,4.842 L12.4029875,1.1535 L3.44505,4.4905 Z M16.0303625,5.873 C16.02505,5.873 16.0192062,5.873 16.0133625,5.873 L0.8514875,5.4125 C0.60020625,5.405 0.3882375,5.232 0.34520625,4.9985 C0.302175,4.765 0.4392375,4.535 0.6729875,4.448 L12.4114875,0.0745 C12.644175,-0.012 12.9098,0.066 13.0489875,0.262 L16.4723625,5.0955 C16.5828625,5.2515 16.5913625,5.4525 16.494675,5.616 C16.401175,5.775 16.2232062,5.873 16.0303625,5.873 L16.0303625,5.873 Z" id="Fill-82"></path>
                </g>
                <polygon id="Fill-85" fill="#E6F9D7" points="4 20 11.4887451 6 15 14.3054604"></polygon>
                <path d="M11.9326496,6.69333353 L5.73442768,18.2730707 L14.8388277,13.562983 L11.9326496,6.69333353 Z M4.50778088,20 C4.37425103,20 4.24224434,19.9464997 4.14425476,19.8446432 C3.98889304,19.6831134 3.95538364,19.4382464 4.06149672,19.2401923 L11.5401836,5.26888696 C11.6325882,5.09552528 11.8189208,4.99315444 12.009315,5.00035641 C12.203771,5.00961608 12.3763952,5.13050628 12.4525529,5.31158435 L15.9588537,13.5995073 C16.0639514,13.8484897 15.9613923,14.1375973 15.7232726,14.2605452 L4.73879259,19.9434131 C4.66568119,19.9814807 4.58647718,20 4.50778088,20 L4.50778088,20 Z" id="Fill-87" fill="#7BE300"></path>
                <path d="M3.08015902,13.0552007 L4.1406443,18.0173884 L9.79605273,7.56160717 L3.08015902,13.0552007 Z M3.92977857,20 C3.90566497,20 3.88155138,19.9984567 3.85692472,19.9948557 C3.64451983,19.9645044 3.47367242,19.8040023 3.42852356,19.5936006 L2.01146485,12.9631178 C1.97093348,12.7748365 2.03968289,12.5788389 2.18898198,12.4569191 L11.162832,5.11600895 C11.3521494,4.96013678 11.6256079,4.96168007 11.8138992,5.11858109 C12.0032166,5.27496769 12.0545221,5.54349993 11.9380586,5.75956035 L4.38075417,19.7309533 C4.28994338,19.8986574 4.1165307,20 3.92977857,20 L3.92977857,20 Z" id="Fill-89" fill="#7BE300"></path>
                <path d="M2.99429394,15.4875929 L1.70791992,23.7532315 L3.85112797,19.2204112 L2.99429394,15.4875929 Z M0.56135695,28 C0.509699853,28 0.457481265,27.9937131 0.406385658,27.9795677 C0.136308877,27.9077928 -0.0349456305,27.66051 0.00604315328,27.4011774 L2.33229701,12.4489478 C2.37160132,12.1979976 2.59732037,12.0088681 2.86908163,12.0004857 C3.12287519,11.9894837 3.3800377,12.1665633 3.43674821,12.4143701 L4.98758411,19.166973 C5.01228968,19.2748973 4.99993689,19.3870128 4.95221023,19.4881263 L1.07512047,27.687753 C0.983597572,27.8815976 0.779215143,28 0.56135695,28 L0.56135695,28 Z" id="Fill-91" fill="#7BE300"></path>
                <path d="M9.95637665,40.9801391 L15.8161781,40.9801391 L6.85380452,35.0185425 L9.95637665,40.9801391 Z M17.4987846,42 L9.65413901,42 C9.4686864,42 9.29827048,41.8954643 9.21155885,41.728717 L5.05842271,33.7477959 C4.95116093,33.5422939 4.99476735,33.2893684 5.16317838,33.1323098 C5.33209063,32.9767811 5.58420594,32.9558739 5.77517201,33.0828466 L17.7729538,41.0632578 C17.9584064,41.186661 18.0426119,41.4191892 17.9789566,41.6353997 C17.9158024,41.8516102 17.7203253,42 17.4987846,42 L17.4987846,42 Z" id="Fill-93" fill="#7BE300"></path>
                <path d="M1.1115143,27.3539366 L4.80282105,31.8547036 L3.74808851,21.4690584 L1.1115143,27.3539366 Z M5.4857488,34 C5.33352996,34 5.18542515,33.9336558 5.0856601,33.8116029 L0.114378078,27.7499757 C-0.00647133472,27.6026005 -0.0342409871,27.4010359 0.0439254418,27.227832 L3.59484117,19.3014784 C3.68997795,19.0913042 3.91676344,18.9717834 4.1461202,19.0057152 C4.37701971,19.0416727 4.55392269,19.2265247 4.57706406,19.4554374 L5.99743035,33.4429117 C6.02005748,33.6662535 5.89149427,33.8769341 5.68116487,33.9620167 C5.61791177,33.9878453 5.55157316,34 5.4857488,34 L5.4857488,34 Z" id="Fill-95" fill="#7BE300"></path>
                <polygon id="Fill-97" fill="#E6F9D7" points="10 42 1 28 5.84615385 34.3002281"></polygon>
                <g id="Group-101" transform="translate(0.000000, 27.000000)" fill="#7BE300">
                    <path d="M9.47725,15.6149161 C9.31325,15.6149161 9.15325,15.5318194 9.05725,15.3800774 L0.08075,1.12510968 C-0.06525,0.893367742 -0.00825,0.583690323 0.21025,0.423174194 C0.42875,0.263174194 0.73075,0.308077419 0.89475,0.526916129 L5.72825,6.94136774 C5.74475,6.96356129 5.75975,6.9867871 5.77275,7.01156129 L9.91575,14.8515613 C10.04425,15.0951742 9.96375,15.4002065 9.73325,15.5416258 C9.65275,15.5911742 9.56475,15.6149161 9.47725,15.6149161" id="Fill-99"></path>
                </g>
            </g>
        </g>
    </g>
</svg>