<?xml version="1.0" encoding="UTF-8"?>
<svg width="42px" height="42px" viewBox="0 0 42 42" version="1.1" xmlns="http://www.w3.org/2000/svg" xmlns:xlink="http://www.w3.org/1999/xlink">
    <!-- Generator: Sketch 46.2 (44496) - http://www.bohemiancoding.com/sketch -->
    <title>medium</title>
    <desc>Created with Sketch.</desc>
    <defs></defs>
    <g id="Page-1" stroke="none" stroke-width="1" fill="none" fill-rule="evenodd">
        <g id="HOVER" transform="translate(-299.000000, -88.000000)">
            <g id="medium" transform="translate(300.000000, 89.000000)">
                <g id="Group-4" transform="translate(9.000000, 10.000000)" stroke="#5E676F" stroke-linecap="round" stroke-linejoin="round">
                    <path d="M15.4039683,0.293111111 C15.2884127,0.235015873 15.194127,0.293746032 15.194127,0.423904762 L15.194127,16.4004127 L22.1398413,19.8981905 C22.485873,20.0727937 22.7690476,19.8962857 22.7690476,19.5064444 L22.7690476,4.12739683 C22.7690476,4.05057143 22.7255556,3.98073016 22.657619,3.94612698 L15.4039683,0.293111111" id="Stroke-174"></path>
                    <path d="M7.61904762,12.4164444 L15.1066667,0.390412698 C15.1749206,0.28152381 15.3253968,0.238984127 15.4415873,0.296444444 L22.6739683,3.87073016 C22.764127,3.9151746 22.7968254,4.02628571 22.7434921,4.11104762 L15.2304762,16.1780317 L7.61904762,12.4164444" id="Stroke-175"></path>
                    <path d="M0.536031746,0.374349206 C0.0633333333,0.141968254 -0.0966666667,0.314031746 0.18015873,0.757206349 L7.43507937,12.359746 L15.194127,16.1778413 L7.48555556,3.8495873 C7.4531746,3.79720635 7.40587302,3.75530159 7.34936508,3.72736508 L0.536031746,0.374349206" id="Stroke-176"></path>
                    <path d="M7.61904762,19.5044127 C7.61904762,19.8955238 7.33555556,20.0729841 6.98984127,19.897746 L0.464126984,16.5974286 C0.233015873,16.4809206 0.0447619048,16.1717143 0.0447619048,15.9107619 L0.0447619048,0.578063492 C0.0447619048,0.317428571 0.233015873,0.199015873 0.464126984,0.31584127 L7.52603175,3.8875873 C7.5831746,3.91647619 7.61904762,3.97520635 7.61904762,4.04028571 L7.61904762,19.5044127" id="Stroke-177"></path>
                </g>
                <circle id="Oval-3-Copy-3" stroke="#1B1B1B" cx="20" cy="20" r="20"></circle>
            </g>
        </g>
    </g>
</svg>