<?xml version="1.0" encoding="UTF-8"?>
<svg width="42px" height="42px" viewBox="0 0 42 42" version="1.1" xmlns="http://www.w3.org/2000/svg" xmlns:xlink="http://www.w3.org/1999/xlink">
    <!-- Generator: Sketch 46.2 (44496) - http://www.bohemiancoding.com/sketch -->
    <title>twitter</title>
    <desc>Created with Sketch.</desc>
    <defs></defs>
    <g id="Page-1" stroke="none" stroke-width="1" fill="none" fill-rule="evenodd">
        <g id="HOVER" transform="translate(-174.000000, -88.000000)">
            <g id="twitter" transform="translate(175.000000, 89.000000)">
                <g id="Group" transform="translate(11.000000, 12.000000)" stroke="#5E676F" stroke-linecap="round" stroke-linejoin="round">
                    <path d="M18.8926721,0.295829275 C18.1216538,0.757991676 17.2697776,1.09434163 16.359695,1.27484282 C15.6345536,0.489931816 14.5977361,0 13.4505274,0 C11.2507311,0 9.46612047,1.80841229 9.46612047,4.03903303 C9.46612047,4.35583105 9.50052813,4.66327814 9.56876999,4.95910741 C6.25645934,4.79022403 3.31947891,3.1838484 1.352221,0.737306296 C1.00929133,1.33576552 0.813167676,2.03056761 0.813167676,2.7701408 C0.813167676,4.17079607 1.5168043,5.40738511 2.58630904,6.13194014 C1.93399717,6.11210484 1.31810007,5.92848667 0.779906939,5.62812362 L0.779906939,5.67771186 C0.779906939,7.63545559 2.15391946,9.26846719 3.97867231,9.63825379 C3.64434456,9.73317985 3.29223951,9.78021783 2.92809179,9.78021783 C2.67175473,9.78021783 2.42115228,9.75613212 2.17829155,9.70881077 C2.68580452,11.3126361 4.15615849,12.4809351 5.90120026,12.5123882 C4.53779677,13.5962455 2.81770055,14.2425928 0.951085043,14.2425928 C0.629373431,14.2425928 0.311102584,14.2238909 0,14.1867706 C1.76425272,15.3309838 3.85996589,16 6.10965333,16 C13.4424989,16 17.451278,9.84624103 17.451278,4.50827947 C17.451278,4.33259541 17.4472637,4.15691136 17.4409557,3.98462765 C18.2194289,3.41507128 18.8958262,2.70440096 19.4285714,1.89398743 C18.7146125,2.21531922 17.9456013,2.4326574 17.1398886,2.52985035 C17.9630919,2.03056761 18.5950459,1.23885593 18.8926721,0.295829275 L18.8926721,0.295829275 Z" id="Stroke-181"></path>
                </g>
                <circle id="Oval-3-Copy" stroke="#1B1B1B" cx="20" cy="20" r="20"></circle>
            </g>
        </g>
    </g>
</svg>